<?xml version="1.0" standalone="no"?>
<!DOCTYPE svg>
<svg version="1.0" xmlns="http://www.w3.org/2000/svg"
 width="900.000000pt" height="900.000000pt" viewBox="0 0 900.000000 900.000000"
 preserveAspectRatio="xMidYMid meet">
<g transform="translate(0.000000,900.000000) scale(0.100000,-0.100000)"
fill="#8c6b43" stroke="none">
<path d="M7810 8750 c-120 -19 -265 -74 -415 -158 -49 -27 -135 -82 -145 -92
-3 -3 -21 -16 -40 -29 -201 -140 -468 -432 -641 -701 -87 -135 -93 -144 -104
-165 -6 -11 -31 -56 -55 -100 -69 -125 -145 -285 -190 -395 -12 -30 -35 -86
-50 -125 -39 -95 -122 -349 -159 -485 -3 -14 -13 -25 -21 -25 -24 0 -28 41
-29 275 -1 221 1 243 41 455 6 33 14 78 18 100 4 22 18 77 30 123 12 46 19 86
15 90 -13 13 -302 -308 -454 -503 -147 -189 -338 -451 -401 -550 -8 -13 -37
-56 -65 -97 -27 -40 -54 -81 -60 -90 -5 -9 -43 -70 -83 -135 -82 -133 -77
-123 -133 -217 -22 -38 -45 -79 -50 -90 -5 -12 -19 -37 -30 -56 -61 -100 -300
-569 -377 -740 -24 -52 -54 -117 -67 -145 -34 -75 -127 -300 -176 -430 -13
-33 -27 -64 -31 -69 -4 -6 -8 -16 -8 -24 0 -8 -7 -28 -14 -45 -8 -18 -24 -59
-35 -92 -11 -33 -37 -105 -56 -160 -20 -55 -40 -113 -44 -130 -4 -16 -19 -64
-33 -105 -26 -78 -46 -142 -77 -250 -10 -35 -23 -66 -28 -67 -26 -9 -67 334
-66 557 1 184 35 409 72 479 15 27 14 51 -1 50 -7 0 -49 -43 -93 -96 -44 -53
-85 -101 -91 -107 -109 -113 -598 -766 -734 -980 -8 -13 -36 -57 -62 -97 -58
-92 -188 -304 -208 -341 -55 -100 -70 -127 -88 -158 -29 -49 -242 -474 -242
-483 0 -4 -13 -35 -29 -69 -15 -35 -43 -99 -60 -143 -18 -44 -42 -100 -53
-125 l-20 -45 -24 30 c-58 73 -113 219 -114 303 0 17 -4 32 -9 32 -11 0 -103
-152 -171 -285 -47 -91 -102 -215 -135 -305 -44 -122 -79 -318 -70 -394 l7
-53 -85 -61 c-87 -63 -265 -184 -289 -196 -18 -9 -44 -25 -111 -69 -31 -20
-79 -49 -105 -63 -26 -14 -63 -35 -82 -46 -141 -84 -420 -207 -575 -254 -33
-10 -63 -21 -67 -24 -8 -6 19 -135 62 -290 17 -62 19 -65 46 -62 16 1 45 9 64
16 19 8 53 21 75 29 251 94 464 208 785 416 102 66 334 234 425 308 50 40 94
73 98 73 19 0 19 -38 -1 -99 -14 -41 -18 -69 -12 -75 6 -6 31 -2 67 10 103 33
168 85 198 157 15 36 35 42 35 11 0 -32 66 -148 117 -204 43 -48 100 -90 120
-90 8 0 2 42 -11 72 -40 94 -67 274 -42 284 7 3 38 -8 67 -24 109 -59 125 -66
156 -78 18 -6 33 -10 33 -7 0 2 -17 36 -39 76 -39 73 -69 163 -57 174 3 3 23
-1 43 -9 124 -51 257 -93 343 -109 60 -11 162 -11 179 0 16 10 6 31 -14 31
-20 0 -89 36 -160 84 -59 40 -124 100 -153 144 -21 31 -5 46 34 32 34 -14 274
-40 359 -40 148 0 400 37 550 81 39 11 84 24 100 28 31 9 168 67 245 104 111
54 354 207 408 257 26 24 21 40 -11 40 -30 0 -143 26 -193 44 -71 26 -159 85
-241 160 -76 71 -141 151 -131 161 2 3 40 -6 84 -19 180 -55 224 -61 469 -61
235 1 265 4 465 52 261 64 575 206 828 377 134 90 329 236 395 297 9 9 55 49
101 90 46 41 82 77 79 81 -7 12 -67 10 -173 -6 -232 -36 -422 -48 -650 -44
-127 3 -249 10 -280 17 -70 16 -177 49 -204 62 -54 27 -116 76 -116 91 0 17
47 38 87 38 14 0 55 7 91 16 37 9 92 22 122 29 30 7 75 18 100 25 25 6 63 15
85 20 77 16 170 41 400 107 79 22 336 107 405 133 30 12 66 25 80 30 104 33
395 179 389 195 -5 13 -86 12 -223 -3 -232 -25 -566 -10 -636 28 -23 13 20 25
140 39 479 56 811 159 982 305 70 60 362 359 431 441 17 21 59 70 93 109 127
149 272 352 363 506 69 118 141 265 141 289 0 4 -111 7 -247 7 -206 -1 -257 2
-298 16 -27 9 -62 19 -77 22 -16 4 -28 13 -28 21 0 11 12 15 48 15 61 0 264
26 322 41 63 16 197 66 245 91 165 87 318 235 383 370 132 275 250 622 306
898 30 152 37 198 51 340 34 334 2 682 -82 905 -8 22 -22 58 -30 80 -9 22 -36
83 -62 135 -78 160 -195 257 -339 281 -65 10 -245 10 -312 -1z"/>
</g>
</svg>
